# xmcd
#
# Track frame offsets:
# 150
# 56458
# 115570
#
# Disc length: 2563 seconds
#
# Revision: 0
# Processed by: cddbd v1.5.2PL0 Copyright (c) Steve Scherf et al.
# Submitted via: Audion 3.0.2 (http://www.panic.com/audion/)
#
DISCID=1a0a0103
DTITLE=Jerry Bergonzi Niniya Jazz Club Belgium 26.5.03 - 2
DYEAR=1900
DGENRE=
TTITLE0=1
TTITLE1=2
TTITLE2=3
EXTD=
EXTT0=
EXTT1=
EXTT2=
PLAYORDER=
